<mxfile host="app.diagrams.net" modified="2020-11-24T02:34:14.977Z" agent="5.0 (X11; Linux x86_64) AppleWebKit/537.36 (KHTML, like Gecko) Chrome/86.0.4240.198 Safari/537.36" etag="KdYr1p_l5nqseju7bB8k" version="13.10.1" type="github">
  <diagram id="C5RBs43oDa-KdzZeNtuy" name="Page-1">
    <mxGraphModel dx="778" dy="1934" grid="1" gridSize="10" guides="1" tooltips="1" connect="1" arrows="1" fold="1" page="1" pageScale="1" pageWidth="827" pageHeight="1169" math="0" shadow="0">
      <root>
        <mxCell id="WIyWlLk6GJQsqaUBKTNV-0" />
        <mxCell id="WIyWlLk6GJQsqaUBKTNV-1" parent="WIyWlLk6GJQsqaUBKTNV-0" />
        <mxCell id="WIyWlLk6GJQsqaUBKTNV-2" value="" style="rounded=0;html=1;jettySize=auto;orthogonalLoop=1;fontSize=11;endArrow=block;endFill=0;endSize=8;strokeWidth=1;shadow=0;labelBackgroundColor=none;edgeStyle=orthogonalEdgeStyle;" parent="WIyWlLk6GJQsqaUBKTNV-1" source="WIyWlLk6GJQsqaUBKTNV-3" target="WIyWlLk6GJQsqaUBKTNV-6" edge="1">
          <mxGeometry relative="1" as="geometry" />
        </mxCell>
        <mxCell id="6WgcGPvxNFcSWFy4UEZd-17" style="edgeStyle=orthogonalEdgeStyle;rounded=0;orthogonalLoop=1;jettySize=auto;html=1;fontSize=12;fontColor=#000000;" edge="1" parent="WIyWlLk6GJQsqaUBKTNV-1" source="WIyWlLk6GJQsqaUBKTNV-3">
          <mxGeometry relative="1" as="geometry">
            <mxPoint x="460" y="-210" as="targetPoint" />
          </mxGeometry>
        </mxCell>
        <mxCell id="WIyWlLk6GJQsqaUBKTNV-3" value="POST" style="rounded=1;whiteSpace=wrap;html=1;fontSize=12;glass=0;strokeWidth=1;shadow=0;" parent="WIyWlLk6GJQsqaUBKTNV-1" vertex="1">
          <mxGeometry x="190" y="-230" width="120" height="40" as="geometry" />
        </mxCell>
        <mxCell id="6WgcGPvxNFcSWFy4UEZd-7" style="edgeStyle=orthogonalEdgeStyle;rounded=0;orthogonalLoop=1;jettySize=auto;html=1;exitX=0.5;exitY=1;exitDx=0;exitDy=0;entryX=0.5;entryY=0;entryDx=0;entryDy=0;fontSize=43;fontColor=#000000;" edge="1" parent="WIyWlLk6GJQsqaUBKTNV-1" source="WIyWlLk6GJQsqaUBKTNV-6" target="WIyWlLk6GJQsqaUBKTNV-10">
          <mxGeometry relative="1" as="geometry" />
        </mxCell>
        <mxCell id="WIyWlLk6GJQsqaUBKTNV-6" value="BIOS" style="rhombus;whiteSpace=wrap;html=1;shadow=0;fontFamily=Helvetica;fontSize=12;align=center;strokeWidth=1;spacing=6;spacingTop=-4;" parent="WIyWlLk6GJQsqaUBKTNV-1" vertex="1">
          <mxGeometry x="200" y="-140" width="100" height="80" as="geometry" />
        </mxCell>
        <mxCell id="6WgcGPvxNFcSWFy4UEZd-8" style="edgeStyle=orthogonalEdgeStyle;rounded=0;orthogonalLoop=1;jettySize=auto;html=1;exitX=0.5;exitY=1;exitDx=0;exitDy=0;fontSize=43;fontColor=#000000;" edge="1" parent="WIyWlLk6GJQsqaUBKTNV-1" source="WIyWlLk6GJQsqaUBKTNV-10" target="6WgcGPvxNFcSWFy4UEZd-3">
          <mxGeometry relative="1" as="geometry" />
        </mxCell>
        <mxCell id="WIyWlLk6GJQsqaUBKTNV-10" value="MBR" style="rhombus;whiteSpace=wrap;html=1;shadow=0;fontFamily=Helvetica;fontSize=12;align=center;strokeWidth=1;spacing=6;spacingTop=-4;" parent="WIyWlLk6GJQsqaUBKTNV-1" vertex="1">
          <mxGeometry x="200" y="-20" width="100" height="80" as="geometry" />
        </mxCell>
        <mxCell id="6WgcGPvxNFcSWFy4UEZd-0" value="" style="rounded=1;whiteSpace=wrap;html=1;strokeWidth=2;fillWeight=4;hachureGap=8;hachureAngle=45;fillColor=#1ba1e2;sketch=1;" vertex="1" parent="WIyWlLk6GJQsqaUBKTNV-1">
          <mxGeometry x="140" y="-310" width="210" height="60" as="geometry" />
        </mxCell>
        <mxCell id="6WgcGPvxNFcSWFy4UEZd-2" value="&lt;b style=&quot;font-size: 43px;&quot;&gt;&lt;font style=&quot;font-size: 43px;&quot;&gt;BIOS&lt;/font&gt;&lt;/b&gt;" style="text;html=1;align=center;verticalAlign=middle;whiteSpace=wrap;rounded=0;fontSize=43;" vertex="1" parent="WIyWlLk6GJQsqaUBKTNV-1">
          <mxGeometry x="225" y="-290" width="40" height="20" as="geometry" />
        </mxCell>
        <mxCell id="6WgcGPvxNFcSWFy4UEZd-6" style="edgeStyle=orthogonalEdgeStyle;rounded=0;orthogonalLoop=1;jettySize=auto;html=1;entryX=0;entryY=0.5;entryDx=0;entryDy=0;fontSize=43;fontColor=#000000;" edge="1" parent="WIyWlLk6GJQsqaUBKTNV-1" source="6WgcGPvxNFcSWFy4UEZd-3" target="6WgcGPvxNFcSWFy4UEZd-4">
          <mxGeometry relative="1" as="geometry" />
        </mxCell>
        <mxCell id="6WgcGPvxNFcSWFy4UEZd-12" style="edgeStyle=orthogonalEdgeStyle;rounded=0;orthogonalLoop=1;jettySize=auto;html=1;exitX=0;exitY=0.5;exitDx=0;exitDy=0;entryX=1;entryY=0.5;entryDx=0;entryDy=0;fontSize=12;fontColor=#000000;" edge="1" parent="WIyWlLk6GJQsqaUBKTNV-1" source="6WgcGPvxNFcSWFy4UEZd-3" target="6WgcGPvxNFcSWFy4UEZd-11">
          <mxGeometry relative="1" as="geometry" />
        </mxCell>
        <mxCell id="6WgcGPvxNFcSWFy4UEZd-24" style="edgeStyle=orthogonalEdgeStyle;rounded=0;orthogonalLoop=1;jettySize=auto;html=1;exitX=0.5;exitY=1;exitDx=0;exitDy=0;entryX=0.5;entryY=0;entryDx=0;entryDy=0;fontSize=12;fontColor=#000000;" edge="1" parent="WIyWlLk6GJQsqaUBKTNV-1" source="6WgcGPvxNFcSWFy4UEZd-3" target="6WgcGPvxNFcSWFy4UEZd-22">
          <mxGeometry relative="1" as="geometry" />
        </mxCell>
        <mxCell id="6WgcGPvxNFcSWFy4UEZd-3" value="" style="rhombus;whiteSpace=wrap;html=1;strokeWidth=1;fontSize=43;fontColor=#000000;" vertex="1" parent="WIyWlLk6GJQsqaUBKTNV-1">
          <mxGeometry x="210" y="100" width="80" height="80" as="geometry" />
        </mxCell>
        <mxCell id="6WgcGPvxNFcSWFy4UEZd-21" style="edgeStyle=orthogonalEdgeStyle;rounded=0;orthogonalLoop=1;jettySize=auto;html=1;exitX=1;exitY=0.5;exitDx=0;exitDy=0;fontSize=12;fontColor=#000000;" edge="1" parent="WIyWlLk6GJQsqaUBKTNV-1" source="6WgcGPvxNFcSWFy4UEZd-4" target="6WgcGPvxNFcSWFy4UEZd-20">
          <mxGeometry relative="1" as="geometry" />
        </mxCell>
        <mxCell id="6WgcGPvxNFcSWFy4UEZd-4" value="" style="rhombus;whiteSpace=wrap;html=1;strokeWidth=1;fontSize=43;fontColor=#000000;" vertex="1" parent="WIyWlLk6GJQsqaUBKTNV-1">
          <mxGeometry x="404" y="100" width="80" height="80" as="geometry" />
        </mxCell>
        <mxCell id="6WgcGPvxNFcSWFy4UEZd-9" value="GRUB&lt;br style=&quot;font-size: 12px;&quot;&gt;" style="text;html=1;strokeColor=none;fillColor=none;align=center;verticalAlign=middle;whiteSpace=wrap;rounded=0;fontSize=12;fontColor=#000000;" vertex="1" parent="WIyWlLk6GJQsqaUBKTNV-1">
          <mxGeometry x="230" y="130" width="40" height="20" as="geometry" />
        </mxCell>
        <mxCell id="6WgcGPvxNFcSWFy4UEZd-11" value="" style="ellipse;whiteSpace=wrap;html=1;strokeWidth=1;fontSize=12;fontColor=#000000;" vertex="1" parent="WIyWlLk6GJQsqaUBKTNV-1">
          <mxGeometry x="60" y="110" width="100" height="60" as="geometry" />
        </mxCell>
        <mxCell id="6WgcGPvxNFcSWFy4UEZd-13" value="Módulos GRUB&lt;br&gt;" style="text;html=1;align=center;verticalAlign=middle;resizable=0;points=[];autosize=1;fontSize=12;fontColor=#000000;" vertex="1" parent="WIyWlLk6GJQsqaUBKTNV-1">
          <mxGeometry x="60" y="130" width="100" height="20" as="geometry" />
        </mxCell>
        <mxCell id="6WgcGPvxNFcSWFy4UEZd-19" value="O POST realiza os testes de Hardware da máquina antes de passar à BIOS ou UWFI." style="text;html=1;strokeColor=none;fillColor=none;align=center;verticalAlign=middle;whiteSpace=wrap;rounded=0;labelBackgroundColor=#ffffff;fontSize=12;fontColor=#000000;labelBorderColor=#000000;" vertex="1" parent="WIyWlLk6GJQsqaUBKTNV-1">
          <mxGeometry x="460" y="-240" width="200" height="60" as="geometry" />
        </mxCell>
        <mxCell id="6WgcGPvxNFcSWFy4UEZd-20" value="" style="rhombus;whiteSpace=wrap;html=1;labelBackgroundColor=#ffffff;strokeWidth=1;fontSize=12;fontColor=#000000;" vertex="1" parent="WIyWlLk6GJQsqaUBKTNV-1">
          <mxGeometry x="580" y="100" width="80" height="80" as="geometry" />
        </mxCell>
        <mxCell id="6WgcGPvxNFcSWFy4UEZd-25" style="edgeStyle=orthogonalEdgeStyle;rounded=0;orthogonalLoop=1;jettySize=auto;html=1;exitX=0.5;exitY=1;exitDx=0;exitDy=0;entryX=0.5;entryY=0;entryDx=0;entryDy=0;fontSize=12;fontColor=#000000;" edge="1" parent="WIyWlLk6GJQsqaUBKTNV-1" source="6WgcGPvxNFcSWFy4UEZd-22" target="6WgcGPvxNFcSWFy4UEZd-23">
          <mxGeometry relative="1" as="geometry" />
        </mxCell>
        <mxCell id="6WgcGPvxNFcSWFy4UEZd-22" value="" style="rhombus;whiteSpace=wrap;html=1;labelBackgroundColor=#ffffff;strokeWidth=1;fontSize=12;fontColor=#000000;" vertex="1" parent="WIyWlLk6GJQsqaUBKTNV-1">
          <mxGeometry x="210" y="220" width="80" height="80" as="geometry" />
        </mxCell>
        <mxCell id="6WgcGPvxNFcSWFy4UEZd-23" value="" style="rhombus;whiteSpace=wrap;html=1;labelBackgroundColor=#ffffff;strokeWidth=1;fontSize=12;fontColor=#000000;" vertex="1" parent="WIyWlLk6GJQsqaUBKTNV-1">
          <mxGeometry x="210" y="340" width="80" height="80" as="geometry" />
        </mxCell>
        <mxCell id="6WgcGPvxNFcSWFy4UEZd-26" value="" style="rhombus;whiteSpace=wrap;html=1;labelBackgroundColor=#ffffff;strokeWidth=1;fontSize=12;fontColor=#000000;" vertex="1" parent="WIyWlLk6GJQsqaUBKTNV-1">
          <mxGeometry x="580" y="340" width="80" height="80" as="geometry" />
        </mxCell>
        <mxCell id="6WgcGPvxNFcSWFy4UEZd-35" style="edgeStyle=orthogonalEdgeStyle;rounded=0;orthogonalLoop=1;jettySize=auto;html=1;exitX=1;exitY=0.5;exitDx=0;exitDy=0;fontSize=12;fontColor=#000000;" edge="1" parent="WIyWlLk6GJQsqaUBKTNV-1" source="6WgcGPvxNFcSWFy4UEZd-27" target="6WgcGPvxNFcSWFy4UEZd-26">
          <mxGeometry relative="1" as="geometry" />
        </mxCell>
        <mxCell id="6WgcGPvxNFcSWFy4UEZd-27" value="" style="rhombus;whiteSpace=wrap;html=1;labelBackgroundColor=#ffffff;strokeWidth=1;fontSize=12;fontColor=#000000;" vertex="1" parent="WIyWlLk6GJQsqaUBKTNV-1">
          <mxGeometry x="404" y="340" width="80" height="80" as="geometry" />
        </mxCell>
        <mxCell id="6WgcGPvxNFcSWFy4UEZd-30" value="Kernel" style="text;html=1;strokeColor=none;fillColor=none;align=center;verticalAlign=middle;whiteSpace=wrap;rounded=0;labelBackgroundColor=#ffffff;fontSize=12;fontColor=#000000;" vertex="1" parent="WIyWlLk6GJQsqaUBKTNV-1">
          <mxGeometry x="230" y="250" width="40" height="20" as="geometry" />
        </mxCell>
        <mxCell id="6WgcGPvxNFcSWFy4UEZd-34" style="edgeStyle=orthogonalEdgeStyle;rounded=0;orthogonalLoop=1;jettySize=auto;html=1;fontSize=12;fontColor=#000000;" edge="1" parent="WIyWlLk6GJQsqaUBKTNV-1" source="6WgcGPvxNFcSWFy4UEZd-31" target="6WgcGPvxNFcSWFy4UEZd-27">
          <mxGeometry relative="1" as="geometry" />
        </mxCell>
        <mxCell id="6WgcGPvxNFcSWFy4UEZd-31" value="File system&lt;br&gt;real" style="text;html=1;align=center;verticalAlign=middle;resizable=0;points=[];autosize=1;fontSize=12;fontColor=#000000;" vertex="1" parent="WIyWlLk6GJQsqaUBKTNV-1">
          <mxGeometry x="210" y="365" width="80" height="30" as="geometry" />
        </mxCell>
        <mxCell id="6WgcGPvxNFcSWFy4UEZd-32" value="initrd" style="text;html=1;align=center;verticalAlign=middle;resizable=0;points=[];autosize=1;fontSize=12;fontColor=#000000;" vertex="1" parent="WIyWlLk6GJQsqaUBKTNV-1">
          <mxGeometry x="424" y="130" width="40" height="20" as="geometry" />
        </mxCell>
        <mxCell id="6WgcGPvxNFcSWFy4UEZd-33" value="File system&lt;br&gt;virtual" style="text;html=1;align=center;verticalAlign=middle;resizable=0;points=[];autosize=1;fontSize=12;fontColor=#000000;" vertex="1" parent="WIyWlLk6GJQsqaUBKTNV-1">
          <mxGeometry x="580" y="130" width="80" height="30" as="geometry" />
        </mxCell>
      </root>
    </mxGraphModel>
  </diagram>
</mxfile>
